<svg width="54" height="54" viewBox="0 0 54 54" fill="none" xmlns="http://www.w3.org/2000/svg">
    <path d="M27 13.4237C25.0024 11.5869 22.3877 10.5675 19.674 10.5674C18.2377 10.5689 16.8158 10.8544 15.4902 11.4075C14.1647 11.9607 12.9616 12.7705 11.9502 13.7904C7.63634 18.1225 7.63817 24.8985 11.9538 29.2124L25.3958 42.6544C25.7075 43.2025 26.3088 43.5564 27 43.5564C27.2838 43.5536 27.563 43.4843 27.8152 43.3541C28.0673 43.2239 28.2855 43.0364 28.452 42.8065L42.0462 29.2124C46.3618 24.8967 46.3618 18.1225 42.0425 13.783C41.0316 12.765 39.8295 11.9569 38.5052 11.405C37.181 10.8531 35.7607 10.5685 34.326 10.5674C31.6124 10.5678 28.9978 11.5872 27 13.4237ZM39.4502 16.3754C42.3157 19.2555 42.3175 23.7545 39.4538 26.6201L27 39.0739L14.5462 26.6201C11.6825 23.7545 11.6843 19.2555 14.5425 16.3827C15.9358 14.9967 17.7582 14.234 19.674 14.234C21.5898 14.234 23.4048 14.9967 24.7872 16.379L25.7038 17.2957C25.8739 17.4661 26.076 17.6013 26.2984 17.6935C26.5208 17.7858 26.7592 17.8333 27 17.8333C27.2408 17.8333 27.4792 17.7858 27.7016 17.6935C27.924 17.6013 28.1261 17.4661 28.2962 17.2957L29.2128 16.379C31.9848 13.6125 36.6818 13.6199 39.4502 16.3754Z" fill="#BABABA"/>
</svg>
