<svg width="54" height="54" viewBox="0 0 54 54" fill="none" xmlns="http://www.w3.org/2000/svg">
    <path d="M24.5186 39.1839C27.7727 39.1833 30.9331 38.0939 33.4964 36.0893L41.5558 44.1486L44.1481 41.5563L36.0888 33.4969C38.0944 30.9333 39.1845 27.7722 39.1853 24.5173C39.1853 16.4304 32.6054 9.85059 24.5186 9.85059C16.4318 9.85059 9.85193 16.4304 9.85193 24.5173C9.85193 32.6041 16.4318 39.1839 24.5186 39.1839ZM24.5186 13.5173C30.5851 13.5173 35.5186 18.4508 35.5186 24.5173C35.5186 30.5838 30.5851 35.5173 24.5186 35.5173C18.4521 35.5173 13.5186 30.5838 13.5186 24.5173C13.5186 18.4508 18.4521 13.5173 24.5186 13.5173Z" fill="#BABABA"/>
</svg>
